<?xml version="1.0" standalone="no"?><!DOCTYPE svg PUBLIC "-//W3C//DTD SVG 1.1//EN" "http://www.w3.org/Graphics/SVG/1.1/DTD/svg11.dtd"><svg t="1573985356100" class="icon" viewBox="0 0 1024 1024" version="1.1" xmlns="http://www.w3.org/2000/svg" p-id="6284" xmlns:xlink="http://www.w3.org/1999/xlink" width="64" height="64"><defs><style type="text/css"></style></defs><path d="M727.552 389.12h-30.72V327.68c0-101.888-82.944-184.832-184.832-184.832S327.168 225.28 327.168 327.168v61.44h-30.72c-51.2 0-92.16 41.472-92.16 92.16V788.48c0 51.2 41.472 92.16 92.16 92.16h431.104c51.2 0 92.16-41.472 92.16-92.16V481.28c0-51.2-41.472-92.16-92.16-92.16zM389.12 327.168c0-68.096 55.296-122.88 122.88-122.88s122.88 55.296 122.88 122.88v61.44H389.12v-61.44z m369.152 461.824c0 16.896-13.824 30.72-30.72 30.72H296.448c-16.896 0-30.72-13.824-30.72-30.72V481.28c0-16.896 13.824-30.72 30.72-30.72h431.104c16.896 0 30.72 13.824 30.72 30.72v307.712z" p-id="6285" fill="#238962"></path><path d="M512 512c-33.792 0-61.44 27.648-61.44 61.44 0 22.528 12.288 42.496 30.72 53.248v70.144c0 16.896 13.824 30.72 30.72 30.72s30.72-13.824 30.72-30.72v-70.144c18.432-10.752 30.72-30.208 30.72-53.248 0-33.792-27.648-61.44-61.44-61.44z" p-id="6286" fill="#238962"></path></svg>