<?xml version="1.0" standalone="no"?><!DOCTYPE svg PUBLIC "-//W3C//DTD SVG 1.1//EN" "http://www.w3.org/Graphics/SVG/1.1/DTD/svg11.dtd"><svg t="1573985054450" class="icon" viewBox="0 0 1068 1024" version="1.1" xmlns="http://www.w3.org/2000/svg" p-id="2399" xmlns:xlink="http://www.w3.org/1999/xlink" width="66.75" height="64"><defs><style type="text/css"></style></defs><path d="M999.557 926.124c-23.525-104.777-82.604-199.883-166.388-267.841-41.816-33.925-88.566-60.345-138.959-78.55-9.8-3.538-19.686-6.756-29.658-9.628 20.693-11.902 39.972-26.613 57.321-43.982 51.274-51.337 79.516-119.617 79.516-192.249 0-72.611-28.242-140.889-79.516-192.227-51.274-51.36-119.468-79.644-191.97-79.644-72.503 0-140.697 28.285-191.97 79.644-51.274 51.337-79.494 119.617-79.494 192.227 0 72.632 28.221 140.912 79.494 192.249 17.606 17.648 37.206 32.553 58.285 44.541-9.5 2.788-18.914 5.855-28.242 9.221-50.523 18.314-97.379 44.904-139.238 79.001-83.933 68.343-142.927 163.943-166.087 269.149-3.281 14.968 6.155 29.808 21.123 33.11 2.017 0.428 4.011 0.643 5.983 0.643 12.738 0 24.21-8.835 27.063-21.788 20.48-93.026 72.653-177.56 146.916-238.032 37.034-30.151 78.443-53.654 123.112-69.844 46.234-16.748 94.827-25.262 144.471-25.262 49.493 0 97.957 8.449 144.064 25.111 44.561 16.105 85.906 39.458 122.876 69.458 74.133 60.13 126.393 144.257 147.194 236.875 3.345 14.968 18.206 24.361 33.131 20.994 14.947-3.368 24.339-18.228 20.973-33.174v0zM313.894 333.872c0-119.273 96.907-216.331 216.009-216.331 119.123 0 216.009 97.058 216.009 216.331 0 119.295-96.886 216.352-216.009 216.352-119.102 0-216.009-97.058-216.009-216.352v0z" p-id="2400" fill="#238962"></path></svg>